<svg xmlns="http://www.w3.org/2000/svg" xmlns:xlink="http://www.w3.org/1999/xlink" width="500" zoomAndPan="magnify" viewBox="0 0 375 374.999991" height="500" preserveAspectRatio="xMidYMid meet" version="1.0"><defs><g/><clipPath id="5e4ef5f2ef"><path d="M 116.964844 116.246094 L 257.964844 116.246094 L 257.964844 187.496094 L 116.964844 187.496094 Z M 116.964844 116.246094 " clip-rule="nonzero"/></clipPath></defs><g clip-path="url(#5e4ef5f2ef)"><path fill="#ff3131" d="M 186.941406 172.574219 C 179.160156 172.574219 172.859375 178.878906 172.859375 186.65625 C 172.859375 194.4375 179.160156 200.742188 186.941406 200.742188 C 194.722656 200.742188 201.023438 194.4375 201.023438 186.65625 C 201.023438 178.878906 194.722656 172.574219 186.941406 172.574219 Z M 229.191406 186.65625 C 229.191406 163.316406 210.285156 144.410156 186.941406 144.410156 C 163.601562 144.410156 144.695312 163.316406 144.695312 186.65625 C 144.695312 202.289062 153.179688 215.878906 165.78125 223.203125 L 172.894531 210.949219 C 164.480469 206.058594 158.777344 197.078125 158.777344 186.65625 C 158.777344 171.097656 171.378906 158.492188 186.941406 158.492188 C 202.503906 158.492188 215.105469 171.097656 215.105469 186.65625 C 215.105469 197.078125 209.402344 206.058594 200.988281 210.914062 L 208.101562 223.167969 C 220.707031 215.878906 229.191406 202.289062 229.191406 186.65625 Z M 186.941406 116.246094 C 148.039062 116.246094 116.527344 147.753906 116.527344 186.65625 C 116.527344 212.675781 130.683594 235.347656 151.699219 247.53125 L 158.742188 235.347656 C 141.949219 225.632812 130.613281 207.464844 130.613281 186.65625 C 130.613281 155.535156 155.820312 130.328125 186.941406 130.328125 C 218.066406 130.328125 243.273438 155.535156 243.273438 186.65625 C 243.273438 207.464844 231.9375 225.632812 215.140625 235.382812 L 222.183594 247.566406 C 243.203125 235.347656 257.355469 212.675781 257.355469 186.65625 C 257.355469 147.753906 225.808594 116.246094 186.941406 116.246094 Z M 186.941406 116.246094 " fill-opacity="1" fill-rule="nonzero"/></g><g fill="#ffffff" fill-opacity="1"><g transform="translate(80.871092, 224.210786)"><g><path d="M 12.6875 0 L 0.828125 -33.4375 L 12.296875 -33.4375 L 19 -11.078125 L 19.1875 -11.078125 L 25.953125 -33.4375 L 36.9375 -33.4375 L 25.125 0 Z M 12.6875 0 "/></g></g></g><g fill="#ffffff" fill-opacity="1"><g transform="translate(118.670914, 224.210786)"><g><path d="M 4.078125 0 L 4.078125 -33.4375 L 14.828125 -33.4375 L 14.828125 0 Z M 4.078125 0 "/></g></g></g><g fill="#ffffff" fill-opacity="1"><g transform="translate(137.57083, 224.210786)"><g><path d="M 3.59375 -33.4375 L 32.515625 -33.4375 L 32.515625 -25.421875 L 14.328125 -25.421875 L 14.328125 -20.796875 L 29.890625 -20.796875 L 29.890625 -13.125 L 14.328125 -13.125 L 14.328125 -8.015625 L 32.84375 -8.015625 L 32.84375 0 L 3.59375 0 Z M 3.59375 -33.4375 "/></g></g></g><g fill="#ffffff" fill-opacity="1"><g transform="translate(172.649841, 224.210786)"><g><path d="M 28.71875 0 L 24.390625 -20.359375 L 24.203125 -20.359375 L 19.875 0 L 8.0625 0 L 0.25 -33.4375 L 11.421875 -33.4375 L 15.265625 -14.484375 L 15.453125 -14.484375 L 19.25 -33.4375 L 29.84375 -33.4375 L 33.875 -14.484375 L 34.0625 -14.484375 L 37.65625 -33.4375 L 48.34375 -33.4375 L 40.53125 0 Z M 28.71875 0 "/></g></g></g><g fill="#ffffff" fill-opacity="1"><g transform="translate(221.23573, 224.210786)"><g><path d="M 3.59375 -33.4375 L 32.515625 -33.4375 L 32.515625 -25.421875 L 14.328125 -25.421875 L 14.328125 -20.796875 L 29.890625 -20.796875 L 29.890625 -13.125 L 14.328125 -13.125 L 14.328125 -8.015625 L 32.84375 -8.015625 L 32.84375 0 L 3.59375 0 Z M 3.59375 -33.4375 "/></g></g></g><g fill="#ffffff" fill-opacity="1"><g transform="translate(256.314741, 224.210786)"><g><path d="M 35.328125 -23.171875 C 35.328125 -21.140625 34.773438 -19.296875 33.671875 -17.640625 C 32.566406 -15.984375 30.960938 -14.769531 28.859375 -14 L 36.296875 0 L 24.25 0 L 18.3125 -12.203125 L 14.328125 -12.203125 L 14.328125 0 L 3.59375 0 L 3.59375 -33.4375 L 24.046875 -33.4375 C 26.453125 -33.4375 28.503906 -32.972656 30.203125 -32.046875 C 31.898438 -31.117188 33.175781 -29.867188 34.03125 -28.296875 C 34.894531 -26.734375 35.328125 -25.023438 35.328125 -23.171875 Z M 24.390625 -22.734375 C 24.390625 -23.609375 24.097656 -24.335938 23.515625 -24.921875 C 22.929688 -25.503906 22.21875 -25.796875 21.375 -25.796875 L 14.328125 -25.796875 L 14.328125 -19.625 L 21.375 -19.625 C 22.21875 -19.625 22.929688 -19.925781 23.515625 -20.53125 C 24.097656 -21.132812 24.390625 -21.867188 24.390625 -22.734375 Z M 24.390625 -22.734375 "/></g></g></g></svg>